<svg width="31" height="32" viewBox="0 0 31 32" fill="none" xmlns="http://www.w3.org/2000/svg">
<path d="M24.7 17.4V7.1L17.6 0H0V31.4H24.7C28.2 31 31 28 31 24.4C30.9 20.8 28.2 17.8 24.7 17.4ZM18.1 2.2L22.7 6.8H18.1V2.2ZM1.2 30.3V1.3H16.9V8H23.5V17.5C19.8 17.7 16.9 20.8 16.9 24.5C16.9 26.9 18.1 29.1 20 30.3H1.2ZM23.9 30.3C20.7 30.3 18.1 27.7 18.1 24.5C18.1 21.3 20.7 18.7 23.9 18.7C27.1 18.7 29.7 21.3 29.7 24.5C29.7 27.6 27.1 30.2 23.9 30.3Z" fill="#F9F2EB"/>
<path d="M26.5 22.0998L23 25.5998L21.3 23.8998C21.1 23.6998 20.7 23.6998 20.5 23.8998C20.3 24.0998 20.3 24.4998 20.5 24.6998L23.1 27.2998L27.5 22.8998C27.7 22.6998 27.7 22.2998 27.5 22.0998C27.1 21.8998 26.7 21.8998 26.5 22.0998ZM6.1 6.6998L4.1 8.6998L3.2 7.7998C3 7.5998 2.6 7.5998 2.4 7.7998C2.2 7.9998 2.2 8.3998 2.4 8.5998L4.1 10.2998L6.9 7.4998C7.1 7.2998 7.1 6.8998 6.9 6.6998C6.7 6.4998 6.4 6.4998 6.1 6.6998ZM9 7.9998H14.4C14.7 7.9998 15 7.6998 15 7.3998C15 7.0998 14.7 6.7998 14.4 6.7998H9C8.7 6.7998 8.4 7.0998 8.4 7.3998C8.4 7.6998 8.7 7.9998 9 7.9998ZM9 10.1998H19.8C20.1 10.1998 20.4 9.8998 20.4 9.5998C20.4 9.2998 20.1 8.9998 19.8 8.9998H9C8.7 8.9998 8.4 9.2998 8.4 9.5998C8.4 9.8998 8.7 10.1998 9 10.1998ZM17.2 16.3998C17.2 16.0998 16.9 15.7998 16.6 15.7998H9C8.7 15.7998 8.4 16.0998 8.4 16.3998C8.4 16.6998 8.7 16.9998 9 16.9998H16.6C16.9 16.9998 17.2 16.7998 17.2 16.3998ZM9 14.7998H19.8C20.1 14.7998 20.4 14.4998 20.4 14.1998C20.4 13.8998 20.1 13.5998 19.8 13.5998H9C8.7 13.5998 8.4 13.8998 8.4 14.1998C8.4 14.4998 8.7 14.7998 9 14.7998ZM13.9 22.6998H9C8.7 22.6998 8.4 22.9998 8.4 23.2998C8.4 23.5998 8.7 23.8998 9 23.8998H13.9C14.2 23.8998 14.5 23.5998 14.5 23.2998C14.5 22.9998 14.2 22.6998 13.9 22.6998ZM15.6 20.4998H9C8.7 20.4998 8.4 20.7998 8.4 21.0998C8.4 21.3998 8.7 21.6998 9 21.6998H15.6C15.9 21.6998 16.2 21.3998 16.2 21.0998C16.2 20.7998 16 20.4998 15.6 20.4998ZM6.1 13.5998L4.1 15.5998L3.2 14.6998C3 14.4998 2.6 14.4998 2.4 14.6998C2.2 14.8998 2.2 15.2998 2.4 15.4998L4.1 17.1998L6.9 14.3998C7.1 14.1998 7.1 13.7998 6.9 13.5998C6.7 13.3998 6.4 13.3998 6.1 13.5998ZM6.1 20.5998L4.1 22.5998L3.2 21.6998C3 21.4998 2.6 21.4998 2.4 21.6998C2.2 21.8998 2.2 22.2998 2.4 22.4998L4.1 24.1998L6.9 21.3998C7.1 21.1998 7.1 20.7998 6.9 20.5998C6.7 20.2998 6.4 20.2998 6.1 20.5998Z" fill="#F9F2EB"/>
</svg>
