<svg width="35" height="39" viewBox="0 0 35 39" fill="none" xmlns="http://www.w3.org/2000/svg">
<path d="M26.3991 16.6999V16.2999L24.3991 15.5999C24.1991 14.8999 23.9991 14.2999 23.6991 13.6999L24.5991 11.8999L24.3991 11.5999C24.0991 11.1999 23.6991 10.8999 23.3991 10.4999L23.0991 10.1999L21.1991 11.0999C20.8991 10.8999 20.5991 10.7999 20.2991 10.5999C19.9991 10.3999 19.6991 10.3999 19.2991 10.2999L18.5991 8.39991H18.1991C17.6991 8.39991 17.1991 8.29991 16.6991 8.39991H16.3991L15.6991 10.2999C14.9991 10.4999 14.3991 10.6999 13.7991 10.9999L11.9991 10.0999L11.6991 10.3999C11.2991 10.6999 10.8991 11.0999 10.5991 11.3999L10.3991 11.6999L11.2991 13.5999C11.0991 13.8999 10.9991 14.1999 10.7991 14.4999C10.6991 14.7999 10.5991 15.0999 10.4991 15.4999L8.59913 16.1999V16.5999C8.59913 17.0999 8.49913 17.5999 8.59913 18.0999V18.4999L10.4991 19.1999C10.6991 19.8999 10.8991 20.4999 11.1991 21.0999L10.2991 22.8999L10.4991 23.1999C10.7991 23.5999 11.1991 23.8999 11.4991 24.2999L11.7991 24.4999L13.6991 23.5999C13.9991 23.7999 14.2991 23.8999 14.5991 24.0999C14.8991 24.1999 15.1991 24.2999 15.5991 24.3999L16.2991 26.2999H18.4991L19.1991 24.3999C19.8991 24.1999 20.4991 23.9999 21.0991 23.6999L22.8991 24.5999L23.1991 24.3999C23.5991 24.0999 23.8991 23.6999 24.2991 23.3999L24.4991 23.0999L23.5991 21.1999C23.7991 20.8999 23.8991 20.5999 24.0991 20.2999C24.1991 19.9999 24.2991 19.6999 24.3991 19.2999L26.2991 18.5999V18.1999C26.3991 17.6999 26.3991 17.1999 26.3991 16.6999ZM25.1991 17.6999L23.3991 18.2999L23.2991 18.5999C23.1991 18.9999 23.0991 19.2999 22.9991 19.6999C22.8991 19.9999 22.6991 20.3999 22.4991 20.6999L22.2991 20.9999L23.0991 22.7999L22.6991 23.1999L21.1991 22.3999H21.0991L20.7991 22.2999L20.5991 22.3999C19.9991 22.7999 19.2991 23.0999 18.4991 23.1999L18.1991 23.2999L17.4991 25.0999H16.9991L16.3991 23.2999L16.0991 23.1999C15.6991 23.0999 15.3991 22.9999 14.9991 22.8999C14.6991 22.7999 14.2991 22.5999 13.9991 22.3999L13.6991 22.1999L11.8991 22.9999L11.4991 22.5999L12.1991 21.1999L12.3991 20.8999L12.1991 20.5999C11.7991 19.9999 11.4991 19.2999 11.3991 18.4999V18.1999L9.59913 17.4999V16.9999L11.3991 16.3999L11.4991 16.0999C11.5991 15.6999 11.6991 15.3999 11.7991 14.9999C11.8991 14.6999 12.0991 14.2999 12.2991 13.9999L12.4991 13.6999L11.6991 11.8999L12.0991 11.4999L13.7991 12.3999L14.0991 12.1999C14.6991 11.7999 15.3991 11.4999 16.1991 11.3999L16.4991 11.2999L17.1991 9.49991H17.6991L18.3991 11.3999L18.6991 11.4999C19.0991 11.5999 19.3991 11.6999 19.7991 11.7999C20.0991 11.8999 20.4991 12.0999 20.7991 12.2999L21.0991 12.4999L22.8991 11.6999L23.2991 12.0999L22.3991 13.7999L22.5991 14.0999C22.9991 14.6999 23.2991 15.3999 23.3991 16.1999L23.4991 16.4999L25.2991 17.1999C25.1991 17.2999 25.1991 17.4999 25.1991 17.6999Z" fill="#F9F2EB"/>
<path d="M19.4008 12.6002C16.8008 11.5002 13.7008 12.7002 12.6008 15.3002C12.1008 16.6002 12.0008 18.0002 12.6008 19.3002C13.1008 20.6002 14.1008 21.6002 15.4008 22.1002C16.1008 22.4002 16.7008 22.5002 17.4008 22.5002C18.1008 22.5002 18.7008 22.4002 19.3008 22.1002C20.6008 21.6002 21.6008 20.6002 22.1008 19.3002C23.3008 16.8002 22.1008 13.7002 19.4008 12.6002ZM21.1008 18.9002C20.7008 19.9002 19.9008 20.6002 18.9008 21.0002C17.9008 21.4002 16.8008 21.4002 15.9008 21.0002C14.9008 20.6002 14.2008 19.8002 13.8008 18.8002C13.4008 17.8002 13.4008 16.7002 13.8008 15.8002C14.4008 14.3002 15.9008 13.4002 17.4008 13.4002C17.9008 13.4002 18.5008 13.5002 19.0008 13.7002C21.0008 14.5002 21.9008 16.9002 21.1008 18.9002Z" fill="#F9F2EB"/>
<path d="M17.4 5.1C10.7 5.1 5.2 10.6 5.2 17.3C5.2 21.1 7 24.7 10.1 27V31.2C10.1 32.2 10.9 33.1 12 33.1H12.1V37C12.1 38 12.9 38.9 14 38.9H21C22 38.9 22.9 38.1 22.9 37V33.1H23C24 33.1 24.9 32.3 24.9 31.2V27C27.9 24.7 29.8 21.1 29.8 17.3C29.6 10.5 24.1 5.1 17.4 5.1ZM20.9 37.6H13.9C13.5 37.6 13.2 37.3 13.2 36.9V35.7H21.5V36.9C21.6 37.3 21.3 37.6 20.9 37.6ZM21.6 34.6H13.3V33.1H21.6V34.6ZM23.8 26.2L23.6 26.4V31.2C23.6 31.6 23.3 31.9 22.9 31.9H12C11.6 31.9 11.3 31.6 11.3 31.2V26.4L11.1 26.2C8.2 24.1 6.5 20.8 6.5 17.3C6.5 11.2 11.4 6.3 17.5 6.3C23.6 6.3 28.5 11.2 28.5 17.3C28.4 20.8 26.7 24.1 23.8 26.2ZM3.7 16.7H0.6C0.3 16.7 0 17 0 17.3C0 17.6 0.3 17.9 0.6 17.9H3.7C4 17.9 4.3 17.6 4.3 17.3C4.3 17 4.1 16.7 3.7 16.7ZM34.1 16.7H31C30.7 16.7 30.4 17 30.4 17.3C30.4 17.6 30.7 17.9 31 17.9H34.1C34.4 17.9 34.7 17.6 34.7 17.3C34.7 17 34.5 16.7 34.1 16.7ZM17.4 4.3C17.7 4.3 18 4 18 3.7V0.6C18 0.3 17.7 0 17.4 0C17.1 0 16.8 0.3 16.8 0.6V3.7C16.8 4 17.1 4.3 17.4 4.3Z" fill="#F9F2EB"/>
<path d="M7.29922 26.6002L5.09922 28.8002C4.89922 29.0002 4.89922 29.4002 5.09922 29.6002C5.19922 29.7002 5.39922 29.8002 5.49922 29.8002C5.59922 29.8002 5.79922 29.7002 5.89922 29.6002L8.09922 27.4002C8.29922 27.2002 8.29922 26.8002 8.09922 26.6002C7.89922 26.4002 7.49922 26.4002 7.29922 26.6002ZM28.7992 5.1002L26.5992 7.30019C26.3992 7.50019 26.3992 7.9002 26.5992 8.1002C26.6992 8.2002 26.8992 8.30019 26.9992 8.30019C27.1992 8.30019 27.2992 8.2002 27.3992 8.1002L29.5992 5.90019C29.7992 5.70019 29.7992 5.3002 29.5992 5.1002C29.3992 4.9002 28.9992 4.9002 28.7992 5.1002ZM27.4992 26.6002C27.2992 26.4002 26.8992 26.4002 26.6992 26.6002C26.4992 26.8002 26.4992 27.2002 26.6992 27.4002L28.8992 29.6002C28.9992 29.7002 29.1992 29.8002 29.2992 29.8002C29.4992 29.8002 29.5992 29.7002 29.6992 29.6002C29.8992 29.4002 29.8992 29.0002 29.6992 28.8002L27.4992 26.6002ZM7.29922 8.1002C7.39922 8.2002 7.59922 8.30019 7.69922 8.30019C7.89922 8.30019 7.99922 8.2002 8.09922 8.1002C8.29922 7.9002 8.29922 7.50019 8.09922 7.30019L5.89922 5.1002C5.69922 4.9002 5.29922 4.9002 5.09922 5.1002C4.89922 5.3002 4.89922 5.70019 5.09922 5.90019L7.29922 8.1002Z" fill="#F9F2EB"/>
</svg>
