<svg width="1454" height="857" viewBox="0 0 1454 857" fill="none" xmlns="http://www.w3.org/2000/svg">
<g clip-path="url(#clip0_4221_2677)">
<rect width="1454" height="857" fill="#B0D3C5"/>
<g opacity="0.45">
<path d="M1774.38 207.326C1774.38 207.326 1768.81 329.907 1771.99 420.607C1775.17 511.326 1708.59 596.119 1566.67 596.119C1424.74 596.119 1429.46 580.568 1429.46 580.568L1398.46 890.57C1398.46 903.909 1387.93 914.722 1374.94 914.722C1365.7 914.722 1357.71 909.241 1353.87 901.253L1333.87 866.436L1243.83 925.999L1241.55 927.504H1241.51C1236.79 930.384 1231.3 932 1225.42 932C1207.78 932 1193.49 917.323 1193.49 899.227C1193.49 891.889 1195.86 885.089 1199.84 879.609C1292.76 706.234 1317.53 498.934 1317.53 498.934C1270.09 405.317 1310.52 322.197 1316.78 310.437C1316.83 310.325 1316.9 310.214 1316.96 310.102C1317.34 309.396 1317.55 309.006 1317.55 309.006C1321.98 300.906 1328.31 294.069 1335.93 289.108C1327.5 289.833 1319.18 288.049 1311.91 283.461C1290.69 269.991 1286.48 237.516 1302.49 210.874C1318.51 184.233 1348.68 173.531 1369.9 187.001L1377.26 193.113L1377.31 193.187L1589.74 366.915L1592.13 368.903C1598.75 374.96 1602.91 383.803 1602.91 393.631C1602.91 411.95 1588.44 426.794 1570.61 426.794L1500.96 431.662C1488.1 431.662 1476.99 423.933 1471.8 412.767L1471.2 411.411L1389.05 226.034C1388.98 237.089 1385.81 248.83 1379.34 259.587C1373.97 268.523 1367.02 275.658 1359.32 280.692C1361.27 280.469 1363.24 280.377 1365.25 280.377C1389.39 280.377 1402.45 296.038 1410.67 316.326L1456.03 429.302C1456.03 429.302 1465.18 454.978 1489.2 454.978C1513.22 454.978 1544.44 449.293 1579.8 446.209C1621 442.623 1621 407.361 1617.65 385.512C1615.99 374.607 1594.14 241.064 1594.14 237.534C1594.14 224.195 1604.68 213.382 1617.65 213.382C1630.62 213.382 1641.17 224.195 1641.17 237.534L1644.08 266.833C1644.08 266.833 1673.87 183.062 1753.09 174.2C1785.08 174.2 1774.41 207.344 1774.41 207.344L1774.38 207.326Z" fill="#6261B6"/>
<path d="M1146.56 312.276C1174.81 312.276 1197.71 288.753 1197.71 259.736C1197.71 230.719 1174.81 207.196 1146.56 207.196C1118.31 207.196 1095.41 230.719 1095.41 259.736C1095.41 288.753 1118.31 312.276 1146.56 312.276Z" fill="#6261B6"/>
<path d="M1187.47 228.207L1298.29 366.394V442.511L1114.4 300.589" fill="#6261B6"/>
<path d="M1198.79 60.6665L1157.77 74.5447C1157.72 72.6497 1157.19 70.8662 1156.33 69.3241L1161.72 63.7877C1162.33 63.1561 1162.64 62.3015 1162.64 61.4654C1162.64 60.1649 1161.91 58.8644 1160.43 58.3071C1159.4 57.9169 1157.86 58.4185 1157.07 59.2174L1151.66 64.7724C1150.18 64.0107 1148.48 63.5648 1146.68 63.5648C1144.89 63.5648 1143.21 64.0107 1141.73 64.7724L1136.23 59.1245C1135.62 58.4929 1134.8 58.1584 1133.97 58.1584C1132.9 58.1584 1131.84 58.7158 1131.18 59.7934C1130.39 61.0753 1130.71 62.7845 1131.76 63.8621L1137.08 69.3241C1136.21 70.8662 1135.69 72.6497 1135.63 74.5447L1096.95 60.9266C1083.71 56.2634 1068.71 61.0753 1061.28 73.2628C1058.94 77.09 1057.39 81.4559 1056.88 86.212C1054.8 105.441 1069.4 121.734 1087.72 121.734C1094.43 121.734 1100.64 119.542 1105.7 115.826C1109.62 113.727 1113.12 119.263 1109.66 122.087L1101.29 128.906C1100.22 129.63 1099.19 130.448 1098.27 131.358L1098.19 131.432C1092.86 136.523 1089.82 144.028 1090.69 152.259C1091.88 163.629 1100.87 172.825 1111.94 174.033C1124.42 175.408 1135.22 166.954 1137.95 155.268V155.213C1138.29 153.819 1138.49 152.37 1138.58 150.902L1143.1 132.826C1143.72 128.553 1149.71 128.553 1150.32 132.826L1154.86 150.902C1154.93 152.37 1155.15 153.819 1155.48 155.213V155.268C1158.22 166.954 1169.04 175.408 1181.54 174.033C1192.61 172.807 1201.58 163.61 1202.77 152.24C1203.62 144.028 1200.58 136.504 1195.27 131.432L1195.19 131.376C1194.25 130.466 1193.24 129.649 1192.17 128.906L1181.81 120.452C1178.37 117.647 1181.81 112.129 1185.73 114.173L1192.84 117.888H1192.88C1197.27 120.359 1202.3 121.734 1207.64 121.734C1225.92 121.734 1240.54 105.441 1238.48 86.212C1237.74 79.4309 1234.88 73.3928 1230.65 68.6553C1222.65 59.7376 1210.06 56.8765 1198.85 60.6665H1198.79Z" fill="#6261B6"/>
<path d="M1373.71 79.301L1413.78 95.9102C1412.64 97.3965 1411.91 99.0871 1411.61 100.852L1404.01 101.502C1403.14 101.577 1402.36 102.023 1401.84 102.654C1401.03 103.657 1400.75 105.125 1401.53 106.519C1402.09 107.503 1403.56 108.135 1404.66 108.042L1412.28 107.392C1412.93 108.952 1413.94 110.42 1415.31 111.609C1416.69 112.798 1418.24 113.578 1419.85 113.969L1420.51 121.92C1420.58 122.812 1420.99 123.611 1421.63 124.15C1422.44 124.856 1423.6 125.134 1424.77 124.763C1426.18 124.298 1427 122.793 1426.89 121.27L1426.26 113.578C1427.88 112.984 1429.42 111.962 1430.65 110.55L1451.63 146.611C1458.81 158.947 1473.28 165.227 1486.63 160.861C1490.83 159.486 1494.75 157.182 1498.13 153.894C1511.81 140.592 1510.9 118.465 1496.92 106.314C1491.8 101.874 1485.69 99.4215 1479.49 98.9013C1475.16 97.9167 1475.98 91.3584 1480.41 91.5071L1491.1 91.86C1492.38 92.0087 1493.67 92.0644 1494.95 91.9901H1495.04C1502.31 91.6371 1509.37 87.9214 1513.87 81.0659C1520.11 71.5909 1519.03 58.6045 1511.34 50.337C1502.67 41.0106 1489.11 40.3046 1479.69 47.4016L1479.65 47.4388C1478.51 48.2748 1477.46 49.2595 1476.47 50.3184L1461.65 61.1126C1458.51 63.9737 1453.93 59.9979 1456.14 56.3193L1464.04 39.5057C1464.91 38.3353 1465.65 37.0905 1466.28 35.8086V35.7715C1471.56 25.0516 1468.62 11.3964 1458.22 4.16936C1448.99 -2.24024 1436.37 -1.16268 1428.3 6.7332C1422.48 12.4368 1420.07 20.2026 1420.96 27.6155V27.7084C1421.1 29.0274 1421.36 30.3094 1421.72 31.5913L1424.3 44.9121C1425.17 49.3338 1419.08 51.2659 1417.36 47.1044L1414.27 39.5615V39.5243C1412.42 34.7496 1409.45 30.3465 1405.38 26.8166C1391.42 14.6848 1370.02 17.4344 1359.52 33.4863C1355.81 39.1527 1354.2 45.6552 1354.45 52.0834C1354.94 64.1966 1362.75 74.7306 1373.71 79.2638V79.301Z" fill="#6261B6"/>
<path d="M1325.96 288.736L1327.74 288.792C1330.47 288.885 1331.55 292.452 1329.36 294.124L1343.82 296L1340.76 278.908L1325.98 288.718L1325.96 288.736Z" fill="#6261B6"/>
<path d="M1364.63 276.735C1363.04 277.905 1363.91 280.488 1365.86 280.413L1366.93 280.376L1359.3 290.817L1349.91 278.574L1364.63 276.735Z" fill="#6261B6"/>
<path d="M1387.51 239.244L1388.27 232.648C1388.49 230.772 1390.99 230.363 1391.75 232.091L1393.66 220.721L1387.35 220.442L1387.51 239.244Z" fill="#6261B6"/>
<path d="M1424.92 625.956C1426.94 605.724 1444.14 590.694 1463.9 591.976C1465.27 592.068 1466.68 592.106 1468.13 592.106C1490.48 592.106 1448.47 554.874 1448.47 554.874L1398.89 550.137L1424.9 625.956H1424.92Z" fill="#6261B6"/>
<path d="M1386.05 244.687L1386.1 244.389C1387.12 239.02 1394.21 238.054 1396.56 242.959L1403.9 228.672L1388.65 217.172L1379.88 228.598L1386.03 244.687H1386.05Z" fill="#6261B6"/>
</g>
</g>
<rect x="0.5" y="0.5" width="1453" height="856" stroke="#292925" stroke-opacity="0.1"/>
<defs>
<clipPath id="clip0_4221_2677">
<rect width="1454" height="857" fill="white"/>
</clipPath>
</defs>
</svg>
