<svg width="1472" height="844" viewBox="0 0 1472 844" fill="none" xmlns="http://www.w3.org/2000/svg">
<g clip-path="url(#clip0_4258_2724)">
<rect width="1472" height="844" fill="#945B38"/>
<path d="M1423.64 -52.3223H965.306L1436.66 212.128C1484.97 239.232 1543.36 199.045 1535.24 144.244L1518.28 29.3955C1511.35 -17.5368 1471.07 -52.3223 1423.64 -52.3223Z" fill="#824D37"/>
<path d="M1384.54 380.06L1123.06 119.075C1054.64 50.816 942.824 129.13 983.605 216.75L1152.32 579.249L760.091 348.834C679.372 301.402 577.982 361.106 580.262 454.69L590.316 867.088C590.91 892.068 587.693 916.955 580.761 940.968L566.21 991.21C554.688 1030.96 599.622 1063.03 633.47 1039.24L778.108 937.564L812.206 1019.16C821.699 1041.86 855.548 1034.83 855.204 1010.23L849.334 578.25L923.963 915.457C944.073 1006.42 1032.07 1065.53 1123.9 1049.82L1288.09 1021.69C1324.93 1015.38 1362.84 1020.75 1396.5 1037.05L1443.12 1059.66C1471.54 1073.43 1504.67 1053.07 1505.23 1021.47V1020.44C1506.6 940.312 1469.45 864.402 1405.37 816.346L1473.35 778.5C1496.74 765.479 1485.56 729.757 1458.89 732.411L1077.94 780.655L1346.76 646.228C1452.24 588.305 1464.07 459.436 1384.54 380.06Z" fill="#824D37"/>
<path d="M1132.36 361.917L804.119 152.174C759.685 123.79 700.418 144.18 682.838 193.891C667.069 238.544 692.331 287.225 737.92 299.997L1116.94 406.32L1132.33 361.917H1132.36Z" fill="#824D37"/>
<path d="M647.522 -70.2769L640.278 -123.329C637.936 -140.379 613.236 -140.16 611.206 -123.048L604.93 -69.871C603.806 -60.4096 592.471 -56.1629 585.383 -62.5642L545.726 -98.5362C532.986 -110.09 514.188 -94.0397 523.618 -79.6447L553.002 -34.867C558.248 -26.9044 552.252 -16.3501 542.728 -16.6936L489.239 -18.7857C472.033 -19.4415 467.974 4.94582 484.461 9.87949L535.734 25.305C544.852 28.0529 547.069 39.9811 539.543 45.8203L497.233 78.6386C483.618 89.1929 496.202 110.489 512.002 103.682L561.183 82.5418C569.957 78.7635 579.294 86.4762 577.295 95.8127L565.96 148.147C562.307 164.978 585.633 173.221 593.377 157.827L617.483 110.02C621.761 101.496 633.908 101.402 638.342 109.833L663.291 157.202C671.316 172.441 694.454 163.76 690.52 147.023L678.248 94.9071C676.062 85.6331 685.274 77.733 694.111 81.3552L743.697 101.621C759.622 108.116 771.8 86.6011 757.999 76.3278L715.094 44.2903C707.444 38.5759 709.443 26.6165 718.529 23.7125L769.521 7.35021C785.914 2.10429 781.387 -22.2206 764.213 -21.2214L710.754 -18.1612C701.23 -17.6304 695.079 -28.0598 700.169 -36.1472L728.709 -81.4558C737.889 -96.007 718.81 -111.745 706.258 -99.9414L667.257 -63.2512C660.325 -56.725 648.865 -60.7531 647.584 -70.2145" fill="#824D37"/>
<path d="M1115.41 499.968L1136.05 544.308C1141.01 554.987 1129.24 565.698 1119.09 559.734L1072.75 532.505L1131.77 615.784L1191.97 578.563L1115.41 499.968Z" fill="#824D37"/>
<path d="M872.347 682.264L863.666 643.014C861.886 635.02 850.114 636.394 850.239 644.575L850.864 691.445L772.269 600.984L884.588 530.913L872.347 682.233V682.264Z" fill="#824D37"/>
<path d="M1172.96 733.13L1125.4 756.924C1116.28 761.483 1120.5 775.285 1130.58 774.004L1184.11 767.228L1066.48 814.286L1053.49 748.243L1172.96 733.161V733.13Z" fill="#824D37"/>
<path d="M1438.03 798.109L1418.05 809.226C1411.93 812.629 1411.18 821.123 1416.58 825.557L1421.67 829.71L1385.73 838.64L1380.61 791.864L1438 798.141L1438.03 798.109Z" fill="#824D37"/>
<path d="M994.502 240.23L1008.71 270.769C1011.05 275.828 1005.37 280.793 1000.69 277.795L958.655 250.941L955.127 293.564L1047.37 336.374L1056.77 302.526L994.502 240.262V240.23Z" fill="#824D37"/>
<path d="M1092.27 450.256L1072.91 408.632C1067.91 397.922 1058.51 389.928 1047.12 386.712L972.519 365.791L1061.48 343.87L1127.34 388.554L1092.27 450.256Z" fill="#824D37"/>
<path d="M867.944 14.4692C840.778 69.2391 855.048 131.628 899.826 153.861C944.604 176.094 1002.93 149.708 1030.13 94.9379C1057.3 40.168 1043.03 -22.221 998.249 -44.4538C953.472 -66.6865 895.111 -40.3008 867.944 14.4692Z" fill="#824D37"/>
<path d="M1060.51 1.07331L1052.08 -3.64176C1045.56 -7.29517 1037.81 -1.48717 1039.47 5.78843L1041.4 14.2818L1000.65 -12.1976L1026.17 -28.9346L1061.64 -8.60664L1060.48 1.10457L1060.51 1.07331Z" fill="#824D37"/>
<path d="M1051.93 93.8761L1045.99 94.688C1039.34 95.5936 1033.94 89.3484 1035.85 82.8847L1037.97 75.7028L1017.08 72.7363L997.75 76.7332L1019.67 116.39L1058.55 102.619L1051.96 93.8761H1051.93Z" fill="#824D37"/>
<path d="M975.236 171.599L976.048 164.948C976.766 159.109 971.301 154.456 965.649 156.048L955.657 158.921L959.81 142.871L987.913 134.097L1002.65 152.832L975.205 171.568L975.236 171.599Z" fill="#824D37"/>
</g>
<defs>
<clipPath id="clip0_4258_2724">
<rect width="1472" height="844" fill="white"/>
</clipPath>
</defs>
</svg>
