<svg width="1472" height="844" viewBox="0 0 1472 844" fill="none" xmlns="http://www.w3.org/2000/svg">
<g clip-path="url(#clip0_4258_2677)">
<rect width="1472" height="844" fill="#D03D35"/>
<path d="M1554.94 927.302C1424 926.486 1369.97 847.305 1368.31 844.856C1366.76 840.379 1362.56 837.169 1357.58 837.169C1352.59 837.169 1348.12 840.604 1346.74 845.278C1345.3 849.277 1333.36 882.841 1332.24 886.051C1322.94 906.606 1288.79 901.538 1286.37 878.392C1285.49 872.197 1286.93 866.143 1290.37 861.131C1290.31 861.103 1388.61 571.244 1388.58 571.216C1397.03 558.855 1376.56 546.212 1369.41 559.305C1350.37 589.125 1226.05 926.739 1087.71 926.739C824.069 926.739 729.149 902.805 621.557 948.027C525.172 967.343 559.497 839.675 653.291 790.623C653.319 790.623 653.319 790.595 653.347 790.595C662.161 784.626 657.402 769.815 646.73 770.124L604.803 768.66C573.21 768.97 573.041 719.412 604.803 719.778L1034.61 709.472C1045.95 709.19 1052.94 696.66 1046.88 687.086C1012.67 636.233 1043.67 559.812 1104.97 549.168C1119.08 548.267 1140.37 544.691 1130.65 525.516C1074.31 407.421 762.966 465.201 673.17 485.982C657.233 489.699 640.31 487.953 625.949 480.125C568 448.391 580.7 344.657 661.935 343.474C661.935 343.474 682.913 336.998 815.847 336.998C972.828 336.998 1000.45 390.188 1003.21 360.51L1031.06 115.591C1033.62 109.622 1029.43 102.92 1022.92 102.611L661.907 116.69C620.853 116.69 587.739 82.731 589.091 41.395C590.414 1.83302 624.063 -29 663.625 -29C1519.94 -23.7626 1245.99 431.243 1314.81 391.596C1317.65 388.358 1421.47 222.451 1424.03 219.072L1426.12 214.511C1474.13 117.675 1617 159.208 1595.15 280.654C1584.81 384.754 1562.29 771.927 1562.29 787.695C1562.68 821.513 1579.83 849.446 1595.04 867.861C1608.52 895.315 1585.49 928.344 1554.94 927.302Z" fill="#A7312A"/>
<path d="M1049.53 467.032C992.679 446.111 1003.21 360.482 1003.21 360.482L1003.1 361.609" fill="#A7312A"/>
<path d="M916.456 158.616C965.845 134.118 1022.1 146.986 1042.15 187.365C1062.2 227.744 1038.41 280.343 989.019 304.868C939.63 329.366 883.37 316.498 863.322 276.119C843.273 235.741 867.067 183.113 916.456 158.616Z" fill="#A7312A"/>
<path d="M807.287 290.565C843.692 290.565 873.205 261.053 873.205 224.647C873.205 188.242 843.692 158.729 807.287 158.729C770.881 158.729 741.369 188.242 741.369 224.647C741.369 261.053 770.881 290.565 807.287 290.565Z" fill="#A7312A"/>
<path d="M1011.6 156.505C1011.6 156.505 1014.36 157.631 1018.44 160.391C1021.68 162.587 1026.07 160.56 1026.61 156.702L1028.05 146.509L1046.29 153.548L1029.45 195.504L1009.71 182.861L1011.6 156.477V156.505Z" fill="#A7312A"/>
<path d="M1000.87 298.084L1002.96 296.591C1006.14 294.339 1010.47 296.929 1010.02 300.815L1009.55 304.757L1026.61 296.873L1020.58 273.445L989.779 278.711L1000.87 298.112V298.084Z" fill="#A7312A"/>
</g>
<defs>
<clipPath id="clip0_4258_2677">
<rect width="1472" height="844" fill="white"/>
</clipPath>
</defs>
</svg>
